<?xml version="1.0" standalone="no"?>
<!DOCTYPE svg PUBLIC "-//W3C//DTD SVG 20010904//EN"
 "http://www.w3.org/TR/2001/REC-SVG-20010904/DTD/svg10.dtd">
<svg version="1.0" xmlns="http://www.w3.org/2000/svg"
 width="368.000000pt" height="284.000000pt" viewBox="0 0 368.000000 284.000000"
 preserveAspectRatio="xMidYMid meet">

<g transform="translate(0.000000,284.000000) scale(0.100000,-0.100000)"
fill="#000000" stroke="none">
<path d="M2070 2822 c0 -6 -10 -12 -22 -14 -14 -2 -19 -6 -12 -10 13 -9 52 17
41 28 -4 4 -7 2 -7 -4z"/>
<path d="M2000 2810 c0 -5 5 -10 11 -10 5 0 7 5 4 10 -3 6 -8 10 -11 10 -2 0
-4 -4 -4 -10z"/>
<path d="M2005 2781 c-3 -5 -1 -12 4 -15 5 -3 11 1 15 9 6 16 -9 21 -19 6z"/>
<path d="M2133 2774 c-3 -8 -1 -20 5 -26 7 -7 7 -16 -1 -29 -9 -15 -8 -21 8
-33 19 -15 19 -15 -7 -16 -16 0 -28 -4 -28 -9 0 -14 23 -19 42 -10 10 6 19 5
23 -2 4 -6 -2 -13 -14 -16 -11 -3 -19 -9 -16 -13 3 -5 1 -11 -4 -14 -9 -6 -8
-62 2 -73 4 -3 4 -17 1 -29 -5 -19 -1 -26 17 -33 24 -10 24 -10 2 -10 -20 -1
-22 -6 -20 -48 1 -27 4 -48 7 -47 30 4 50 15 50 28 0 9 -4 16 -10 16 -5 0 -7
-8 -3 -17 3 -10 -3 -6 -15 9 -12 14 -22 30 -22 35 0 4 4 2 9 -6 5 -8 16 -11
24 -8 20 8 19 84 -1 92 -11 4 -10 8 4 22 20 20 1 32 -21 13 -12 -10 -15 -9
-15 4 0 9 4 16 8 16 5 0 17 6 28 14 18 14 18 15 -6 25 -18 7 -20 10 -7 10 13
1 17 10 17 42 0 24 4 38 10 34 6 -3 10 -1 10 4 0 6 -9 16 -19 23 -14 8 -17 16
-10 24 14 17 0 44 -22 44 -11 0 -22 -7 -26 -16z m42 -15 c-8 -12 -35 -12 -35
0 0 11 22 20 33 14 4 -2 5 -9 2 -14z m5 -48 c0 -14 -18 -23 -30 -16 -6 4 -8
11 -5 16 8 12 35 12 35 0z m5 -211 c3 -6 -1 -13 -10 -16 -19 -8 -30 0 -20 15
8 14 22 14 30 1z"/>
<path d="M2030 2750 c0 -6 -6 -10 -13 -8 -28 7 -23 -48 6 -57 l22 -8 -22 -4
c-18 -3 -23 -11 -23 -33 0 -22 4 -28 15 -24 8 4 15 1 15 -4 0 -6 12 -23 26
-37 20 -20 24 -29 15 -38 -9 -9 -14 -9 -20 1 -7 11 -10 10 -15 -3 -9 -24 -28
-7 -20 18 5 18 4 20 -7 9 -29 -27 33 -69 64 -43 17 14 17 156 0 156 -7 0 -18
6 -25 13 -11 11 -9 13 12 10 22 -3 25 0 21 22 -1 14 -8 28 -15 32 -16 11 -36
10 -36 -2z m40 -30 c0 -5 -13 -10 -30 -10 -16 0 -30 5 -30 10 0 6 14 10 30 10
17 0 30 -4 30 -10z m0 -75 c0 -10 -10 -15 -30 -15 -49 0 -34 24 18 29 6 0 12
-6 12 -14z m0 -34 c0 -17 -18 -21 -24 -6 -3 9 0 15 9 15 8 0 15 -4 15 -9z"/>
<path d="M2291 2564 c-12 -9 -21 -23 -21 -32 0 -14 9 -17 40 -17 45 0 51 14
21 44 -17 17 -21 18 -40 5z m34 -14 c3 -5 -3 -10 -14 -10 -12 0 -21 5 -21 10
0 6 6 10 14 10 8 0 18 -4 21 -10z"/>
<path d="M579 2555 c-11 -11 -43 -18 -107 -22 -77 -5 -95 -3 -110 11 -10 9
-22 13 -25 9 -4 -3 -7 -43 -7 -88 0 -93 13 -115 68 -115 45 0 82 36 89 88 l6
42 44 0 c42 0 44 -1 41 -27 -2 -17 -12 -32 -25 -38 -13 -5 -23 -13 -23 -17 0
-12 51 -21 61 -11 5 5 9 49 7 97 -3 79 -4 85 -19 71z m-119 -100 c0 -41 -63
-61 -95 -29 -24 25 -13 38 36 45 24 3 47 7 52 7 4 1 7 -9 7 -23z"/>
<path d="M2310 2503 c-30 -12 -54 -63 -29 -63 5 0 8 4 4 9 -3 5 -1 12 5 16 6
3 13 -1 16 -9 11 -28 22 -17 21 19 -1 19 -1 35 -1 34 -1 0 -8 -3 -16 -6z"/>
<path d="M2013 2487 c20 -16 22 -34 6 -39 -7 -2 -10 -9 -8 -14 2 -6 22 0 44
14 25 15 31 22 18 19 -15 -3 -23 0 -23 9 0 8 -4 14 -9 14 -5 0 -18 3 -28 6
-17 5 -17 5 0 -9z"/>
<path d="M2267 2408 c3 -18 11 -23 34 -23 21 0 29 5 29 18 0 9 -5 17 -11 17
-5 0 -7 -4 -4 -10 3 -5 -1 -10 -9 -10 -9 0 -15 5 -13 12 1 6 -5 13 -14 15 -12
3 -15 -2 -12 -19z"/>
<path d="M2032 2370 c0 -19 2 -27 5 -17 2 9 2 25 0 35 -3 9 -5 1 -5 -18z"/>
<path d="M2275 2359 c-4 -6 -4 -13 0 -17 4 -4 10 -1 12 6 7 19 23 14 23 -8 0
-16 -7 -20 -30 -20 -16 0 -30 -4 -30 -10 0 -5 5 -10 10 -10 6 0 19 -9 30 -20
16 -16 17 -20 5 -20 -10 0 -15 -10 -15 -32 0 -18 4 -28 8 -22 4 6 17 16 30 23
15 8 20 16 14 24 -4 7 -7 36 -5 65 2 49 1 52 -22 52 -13 0 -27 -5 -30 -11z
m36 -72 c-13 -13 -26 -3 -16 12 3 6 11 8 17 5 6 -4 6 -10 -1 -17z"/>
<path d="M2168 2352 c-35 -4 -37 -22 -3 -22 14 0 25 -4 25 -10 0 -5 -9 -10
-20 -10 -11 0 -21 -3 -21 -7 -6 -37 -4 -53 9 -58 8 -3 17 -3 20 0 3 3 0 5 -6
5 -15 0 -16 36 -2 45 6 3 10 -1 10 -10 0 -34 22 -8 25 28 2 42 1 44 -37 39z"/>
<path d="M730 2327 c0 -7 13 -18 29 -24 29 -11 30 -12 33 -97 4 -103 3 -106
-27 -106 -22 0 -42 -16 -33 -25 2 -2 22 -7 45 -11 38 -6 42 -4 54 22 12 24 32
35 124 69 85 31 111 45 113 60 2 17 -11 24 -105 50 -71 20 -115 38 -129 53
-24 25 -104 33 -104 9z m177 -78 c92 -22 92 -23 10 -53 -42 -15 -81 -25 -87
-21 -5 3 -10 24 -10 46 0 45 7 47 87 28z"/>
<path d="M335 2318 c-5 -18 -1 -78 6 -78 3 0 10 5 16 11 7 7 24 8 42 4 27 -6
31 -11 31 -40 0 -34 -13 -45 -51 -45 -10 0 -19 5 -19 11 0 8 -4 8 -14 0 -9 -8
-12 -26 -8 -59 6 -55 10 -63 23 -40 7 13 159 83 242 112 37 12 8 31 -113 72
-68 23 -126 46 -128 53 -5 15 -22 14 -27 -1z m163 -84 c30 -8 28 -17 -7 -31
-33 -12 -41 -8 -41 19 0 19 10 22 48 12z"/>
<path d="M2010 2291 c0 -7 6 -11 13 -8 7 3 19 -4 25 -14 15 -23 38 -25 46 -3
13 34 7 41 -39 40 -31 -1 -45 -5 -45 -15z m80 -10 c0 -5 -7 -11 -15 -15 -9 -3
-15 0 -15 9 0 8 7 15 15 15 8 0 15 -4 15 -9z"/>
<path d="M2194 2245 c4 -11 -1 -15 -19 -15 -36 0 -31 -15 5 -16 25 -1 30 3 30
22 0 13 -5 24 -11 24 -6 0 -9 -7 -5 -15z"/>
<path d="M2025 2234 c-10 -10 -12 -21 -7 -28 5 -6 8 -33 6 -61 -1 -27 0 -44 3
-37 7 19 30 14 36 -8 4 -16 0 -20 -19 -20 -28 0 -32 -16 -6 -23 16 -4 16 -5 0
-6 -12 -1 -18 -9 -18 -25 0 -15 7 -26 18 -29 16 -4 16 -5 0 -6 -23 -1 -24 -21
-1 -21 16 0 16 -1 0 -12 -12 -9 -14 -17 -7 -28 8 -13 10 -12 10 3 0 9 7 17 16
17 10 0 14 -6 10 -15 -3 -8 -1 -15 4 -15 14 0 12 27 -2 36 -7 5 -4 10 10 15
22 8 31 44 12 51 -5 2 -10 24 -11 50 -2 38 -7 51 -26 63 -26 18 -30 35 -8 35
8 0 15 -8 15 -17 0 -13 3 -14 12 -5 9 9 9 15 1 23 -7 7 -9 24 -6 39 6 33 -19
47 -42 24z m35 -14 c0 -5 -7 -10 -15 -10 -8 0 -15 5 -15 10 0 6 7 10 15 10 8
0 15 -4 15 -10z m3 -197 c-7 -2 -19 -2 -25 0 -7 3 -2 5 12 5 14 0 19 -2 13 -5z"/>
<path d="M2320 2200 c0 -5 -9 -10 -20 -10 -11 0 -20 -4 -20 -10 0 -5 12 -10
28 -10 23 -1 25 -2 9 -11 -9 -5 -22 -7 -27 -4 -6 3 -10 -3 -10 -14 0 -30 17
-34 40 -11 21 21 28 80 10 80 -5 0 -10 -4 -10 -10z"/>
<path d="M2152 2168 c1 -18 7 -36 13 -40 7 -6 7 -10 0 -15 -14 -11 -17 -60 -4
-68 6 -5 7 -11 0 -19 -6 -7 -6 -17 -1 -26 8 -13 10 -12 10 3 0 20 16 23 23 5
4 -10 7 -10 18 0 10 10 11 15 2 20 -8 5 -9 19 -5 42 4 19 6 45 4 58 -3 18 -8
21 -30 16 l-27 -5 28 25 c34 32 34 36 -3 36 -28 0 -30 -3 -28 -32z m48 -97 c0
-5 -7 -11 -15 -15 -9 -3 -15 0 -15 9 0 8 7 15 15 15 8 0 15 -4 15 -9z"/>
<path d="M2548 2133 c12 -2 32 -2 45 0 12 2 2 4 -23 4 -25 0 -35 -2 -22 -4z"/>
<path d="M2568 2102 c-36 -21 -35 -30 0 -24 19 2 28 10 29 23 1 10 1 19 0 19
-1 0 -14 -8 -29 -18z"/>
<path d="M2289 2091 c12 -8 12 -12 2 -25 -12 -14 -10 -16 18 -16 26 0 31 4 31
25 0 22 -4 25 -32 25 -24 0 -29 -3 -19 -9z"/>
<path d="M1052 2045 c-6 -12 -35 -17 -130 -22 -109 -5 -122 -8 -122 -24 0 -17
52 -63 146 -128 18 -13 33 -25 31 -26 -1 -1 -30 -5 -63 -9 -49 -5 -65 -4 -77
9 -21 21 -32 2 -28 -50 3 -46 9 -55 21 -35 7 12 87 22 238 29 26 2 9 20 -82
92 -52 41 -92 77 -89 81 7 13 148 9 161 -4 9 -9 12 1 12 45 0 60 -3 67 -18 42z"/>
<path d="M345 2038 c-4 -9 -5 -37 -3 -64 3 -43 5 -46 18 -33 17 17 110 34 110
20 0 -5 -19 -24 -42 -42 -69 -54 -90 -81 -83 -109 3 -14 5 -49 5 -77 -1 -53 6
-63 27 -42 7 7 23 9 37 5 22 -5 26 -12 26 -41 0 -28 -5 -38 -26 -47 -20 -9
-27 -9 -34 1 -17 28 -31 0 -25 -52 3 -29 6 -75 5 -104 l-1 -52 34 6 c39 6 154
-24 141 -37 -5 -4 -38 -18 -72 -31 -51 -18 -65 -20 -72 -9 -4 7 -13 9 -20 5
-9 -6 -11 -33 -6 -104 3 -53 6 -100 6 -105 0 -5 8 -2 18 6 11 9 26 13 42 9 20
-6 26 -14 28 -44 3 -32 0 -37 -23 -43 -14 -3 -31 -1 -39 5 -20 17 -26 3 -26
-63 l0 -61 24 26 c14 15 70 44 130 68 111 45 135 62 114 78 -7 5 -59 24 -116
42 -56 18 -113 42 -126 54 -22 21 -22 23 -6 40 10 10 69 40 131 66 67 29 114
54 114 62 0 8 -20 20 -45 27 -162 49 -182 57 -200 79 -10 13 -16 31 -13 40 6
16 108 66 201 99 67 23 71 48 10 64 -104 26 -185 57 -206 77 -20 20 -21 26
-10 47 7 13 40 45 72 71 l60 48 51 -56 c28 -31 54 -57 58 -57 5 0 7 19 5 43
-2 34 -6 41 -21 39 -17 -3 -96 55 -97 72 0 8 68 5 99 -5 12 -3 14 6 12 41 -3
51 -8 61 -21 40 -7 -11 -34 -16 -105 -18 -81 -3 -99 -1 -115 13 -17 15 -20 16
-25 3z m183 -368 c18 0 15 -17 -5 -23 -10 -2 -26 -8 -35 -12 -15 -6 -18 -2
-18 20 0 23 3 26 23 21 12 -3 28 -6 35 -6z m17 -560 c19 -7 18 -9 -8 -19 -29
-11 -47 -14 -47 -7 0 2 -3 11 -6 20 -5 12 0 16 17 15 13 0 33 -4 44 -9z"/>
<path d="M2566 2043 c-21 -3 -26 -7 -16 -13 12 -7 11 -11 -1 -26 -13 -16 -12
-16 8 -6 12 7 30 9 40 6 14 -5 15 -4 4 4 -12 9 -12 13 -2 26 8 9 10 15 5 15
-5 -1 -22 -4 -38 -6z"/>
<path d="M2290 2031 c0 -5 10 -7 21 -4 16 4 20 2 17 -8 -3 -8 -11 -14 -19 -13
-9 1 -15 -10 -16 -30 0 -17 1 -25 4 -18 7 17 23 15 23 -4 0 -14 3 -14 15 -4
11 9 12 17 6 23 -5 5 -7 23 -4 38 5 26 3 29 -21 29 -14 0 -26 -4 -26 -9z"/>
<path d="M2187 1949 c-9 -6 -26 -7 -37 -4 -26 8 -26 -1 1 -16 16 -8 27 -8 45
2 13 7 24 16 24 21 0 11 -11 10 -33 -3z"/>
<path d="M2552 1938 c-7 -7 -12 -21 -12 -32 0 -19 2 -18 13 4 9 17 20 24 35
23 12 -2 22 2 22 7 0 14 -44 12 -58 -2z"/>
<path d="M3230 1925 c-10 -12 -15 -13 -20 -4 -5 7 -13 8 -26 1 -11 -5 -25 -7
-32 -5 -11 4 -11 2 0 -16 l13 -21 16 21 c15 20 17 21 26 5 9 -16 11 -16 22 -2
19 22 34 20 26 -4 -4 -11 -2 -20 4 -20 6 0 11 4 11 10 0 5 10 14 21 21 20 10
21 9 16 -10 -6 -25 -4 -26 28 -5 34 22 32 3 -2 -44 l-28 -37 36 30 c20 17 34
33 32 37 -2 4 1 9 7 13 23 14 9 27 -25 22 -21 -4 -35 -2 -35 5 0 6 -10 8 -24
4 -14 -3 -28 -2 -31 4 -9 14 -21 12 -35 -5z"/>
<path d="M2183 1895 c-30 -31 -29 -35 7 -35 32 0 41 16 13 23 -17 4 -17 5 0 6
9 0 17 8 17 16 0 21 -11 18 -37 -10z"/>
<path d="M3058 1900 c-7 -12 -34 -34 -60 -49 l-48 -27 35 0 c19 1 35 5 35 9 0
5 9 5 20 2 14 -5 20 -2 20 10 0 9 4 14 10 10 5 -3 21 -3 35 1 17 4 25 13 25
28 0 13 -6 23 -12 23 -7 0 -21 4 -30 8 -11 4 -21 0 -30 -15z"/>
<path d="M2024 1894 c3 -9 6 -20 6 -26 0 -6 6 -6 15 2 8 6 18 9 24 6 7 -5 21
14 21 30 0 2 -16 4 -36 4 -29 0 -35 -3 -30 -16z"/>
<path d="M2290 1894 c0 -7 10 -9 25 -6 32 6 33 -14 1 -22 -22 -5 -24 -11 -23
-51 1 -25 5 -45 10 -45 4 0 7 5 7 10 0 6 6 10 14 10 21 0 8 -38 -16 -46 -13
-4 -24 -1 -29 7 -7 11 -9 11 -9 1 0 -7 12 -17 26 -22 40 -16 51 4 52 97 l1 80
-29 -1 c-17 -1 -30 -6 -30 -12z m50 -54 c0 -5 -7 -10 -15 -10 -8 0 -15 5 -15
10 0 6 7 10 15 10 8 0 15 -4 15 -10z"/>
<path d="M3400 1890 c-11 -8 -8 -9 13 -4 31 7 34 -1 10 -30 -18 -20 -18 -20 7
-4 14 8 25 22 25 29 0 17 -35 23 -55 9z"/>
<path d="M2562 1873 c-36 -7 -17 -20 22 -15 20 2 33 8 30 13 -5 9 -12 9 -52 2z"/>
<path d="M2050 1849 c-27 -4 -31 -7 -17 -13 9 -5 24 -6 32 -2 8 3 15 1 15 -4
0 -6 -13 -10 -30 -10 -39 0 -39 -38 0 -53 12 -4 11 -6 -2 -6 -10 -1 -18 -5
-18 -11 0 -11 39 -13 64 -4 17 7 22 44 7 44 -6 0 -11 15 -13 33 -3 31 -4 32
-38 26z m30 -55 c0 -2 -9 -4 -21 -4 -11 0 -18 4 -14 10 5 8 35 3 35 -6z"/>
<path d="M2140 1831 c0 -8 3 -11 7 -8 12 13 32 -27 22 -45 -5 -10 -5 -19 0
-22 5 -4 12 0 15 6 5 10 7 10 12 1 12 -27 22 -11 22 37 l1 49 -40 -2 c-26 -1
-39 -7 -39 -16z m62 -13 c-9 -9 -15 -9 -24 0 -9 9 -7 12 12 12 19 0 21 -3 12
-12z"/>
<path d="M2578 1837 c12 -13 10 -16 -15 -20 -20 -3 -16 -4 15 -6 23 0 42 1 42
3 0 2 -12 12 -27 22 -23 14 -25 14 -15 1z"/>
<path d="M3226 1831 c-5 -7 -14 -10 -21 -7 -22 8 -87 -15 -106 -37 l-17 -22
-31 22 c-33 25 -61 21 -61 -7 0 -10 -3 -26 -6 -34 -5 -12 -2 -15 10 -10 21 8
66 -4 66 -17 0 -7 -13 -10 -32 -7 -30 3 -33 1 -35 -24 -1 -16 2 -28 7 -28 5 0
7 7 4 15 -7 18 23 32 38 17 8 -8 8 -15 -1 -26 -8 -10 -9 -16 -1 -21 18 -11 1
-25 -31 -25 -47 0 -33 -17 16 -18 35 -1 43 2 38 13 -3 10 1 15 13 16 15 0 13
3 -6 10 -24 10 -24 11 -6 25 11 8 14 14 7 14 -14 0 -5 43 10 48 19 7 8 17 -21
18 -30 1 -60 19 -60 35 0 15 37 10 50 -6 17 -20 70 -20 70 1 0 8 4 13 9 9 5
-3 12 -1 16 4 3 6 12 8 20 4 8 -3 15 -1 15 4 0 5 14 10 30 10 17 0 30 -4 30
-8 0 -4 10 -5 22 -1 17 4 20 2 15 -12 -6 -14 -4 -15 15 -5 17 9 23 9 26 0 3
-9 7 -9 17 -1 8 6 11 18 8 26 -4 11 -9 12 -19 3 -11 -9 -18 -8 -29 1 -8 6 -19
9 -25 5 -6 -4 -17 1 -24 11 -10 12 -15 14 -20 5z"/>
<path d="M3410 1801 c0 -11 -8 -22 -17 -24 -13 -3 -11 -5 6 -6 14 0 33 6 43
16 16 14 18 14 18 1 0 -15 28 -33 37 -24 3 2 -1 14 -7 26 -9 16 -18 20 -36 16
-14 -4 -24 -2 -24 4 0 5 -4 10 -10 10 -5 0 -10 -9 -10 -19z"/>
<path d="M2863 1793 c-7 -2 -13 -11 -13 -19 0 -8 -10 -14 -22 -14 -18 0 -20 2
-8 10 12 8 12 10 -4 16 -14 5 -27 -3 -51 -32 -31 -36 -32 -39 -13 -42 25 -5
80 17 72 29 -3 5 -1 9 5 9 5 0 12 -6 14 -12 3 -8 6 -6 6 5 1 9 6 17 11 17 6 0
10 6 10 14 0 10 7 12 22 8 14 -3 19 -2 14 6 -7 12 -22 14 -43 5z"/>
<path d="M2555 1781 c-10 -16 9 -19 40 -5 l30 13 -32 1 c-17 0 -34 -4 -38 -9z"/>
<path d="M1900 1760 c0 -5 11 -10 24 -10 13 0 27 -6 29 -12 3 -7 6 -3 6 10 1
18 -4 22 -29 22 -16 0 -30 -4 -30 -10z"/>
<path d="M3164 1749 c-2 -5 -10 -6 -17 -3 -18 7 -47 -48 -45 -88 1 -19 -2 -40
-6 -46 -5 -8 0 -12 13 -12 12 0 21 5 21 10 0 6 -4 10 -10 10 -10 0 -7 53 5 91
7 21 96 40 103 21 3 -9 9 -9 23 -2 11 6 27 10 36 8 9 -2 18 2 20 9 5 13 -135
15 -143 2z"/>
<path d="M2590 1741 c0 -5 -10 -12 -22 -14 -14 -3 -7 -5 16 -6 33 -1 37 1 26
14 -14 17 -20 19 -20 6z"/>
<path d="M3325 1740 c-3 -5 -1 -10 4 -10 6 0 11 5 11 10 0 6 -2 10 -4 10 -3 0
-8 -4 -11 -10z"/>
<path d="M3484 1733 c-9 -14 -14 -15 -25 -6 -32 27 -57 -20 -49 -93 3 -30 3
-57 -2 -60 -4 -3 -8 0 -8 6 0 6 -5 8 -12 4 -7 -5 -5 -11 7 -21 12 -8 21 -9 25
-3 4 6 15 4 28 -6 12 -8 20 -20 16 -25 -15 -25 7 -58 46 -70 45 -14 59 -7 39
18 -12 15 -12 16 3 10 22 -8 32 7 24 37 -5 19 -11 22 -36 18 -18 -3 -30 0 -30
7 0 6 -11 11 -24 11 -39 0 -67 50 -31 56 11 1 21 8 23 13 2 6 12 11 23 11 10
0 19 5 19 10 0 6 -9 10 -19 10 -11 0 -21 5 -23 11 -2 6 -16 12 -32 12 -20 0
-26 3 -22 14 3 8 6 17 6 19 0 3 16 2 36 -2 34 -6 53 4 54 29 0 14 -25 7 -36
-10z"/>
<path d="M2169 1735 c-1 -6 -2 -35 -3 -65 l-1 -56 33 0 c27 0 32 4 32 23 0 16
-5 22 -17 20 -10 -1 -19 3 -20 8 -2 6 3 10 10 10 15 0 25 24 19 48 -3 12 -8
14 -16 7 -9 -6 -16 -6 -24 2 -7 7 -12 8 -13 3z m38 -101 c-3 -3 -12 -4 -19 -1
-8 3 -5 6 6 6 11 1 17 -2 13 -5z"/>
<path d="M1058 1708 c-5 -15 -202 -19 -230 -4 -16 7 -18 2 -18 -48 0 -59 4
-64 29 -42 10 8 55 16 119 21 l103 7 -3 -64 -3 -63 -99 -3 c-64 -2 -103 1
-112 9 -21 17 -26 7 -27 -50 -1 -33 2 -51 10 -51 6 0 13 5 15 11 6 17 206 33
224 18 8 -6 16 -10 18 -8 6 9 -7 279 -14 279 -5 0 -10 -6 -12 -12z"/>
<path d="M2080 1700 c0 -5 -11 -10 -25 -10 -14 0 -25 -5 -25 -10 0 -6 11 -8
25 -4 14 3 25 2 25 -4 0 -5 -9 -12 -20 -15 -25 -7 -36 -35 -22 -57 6 -10 8
-28 5 -40 -4 -13 0 -25 8 -31 10 -6 10 -9 2 -9 -9 0 -12 -20 -11 -68 l1 -68
33 4 c25 3 31 8 27 23 -3 10 -10 19 -15 19 -6 0 -8 -7 -4 -15 3 -9 0 -15 -8
-15 -8 0 -16 9 -19 20 -4 15 0 20 14 20 28 0 36 30 14 46 -17 13 -17 14 -2 14
20 0 24 51 7 94 -6 16 -6 27 1 31 5 4 6 12 2 18 -4 7 -6 24 -4 39 1 16 0 28
-3 28 -3 0 -6 -4 -6 -10z m-7 -80 c3 -13 0 -20 -9 -20 -8 0 -14 9 -14 20 0 11
4 20 9 20 5 0 11 -9 14 -20z m12 -60 c3 -5 -3 -10 -15 -10 -12 0 -18 5 -15 10
3 6 10 10 15 10 5 0 12 -4 15 -10z m0 -90 c3 -6 -1 -13 -10 -16 -19 -8 -30 0
-20 15 8 14 22 14 30 1z"/>
<path d="M2297 1649 c3 -40 1 -59 -6 -55 -5 4 -12 2 -16 -3 -3 -6 4 -15 16
-21 15 -9 19 -18 15 -35 -3 -13 -1 -27 6 -31 7 -4 8 -3 4 4 -4 8 0 12 11 12
12 0 18 -8 19 -26 2 -22 -1 -25 -22 -20 -14 4 -24 2 -24 -4 0 -5 11 -10 25
-10 14 0 25 -4 25 -10 0 -5 -11 -10 -25 -10 -18 0 -25 -5 -25 -19 0 -11 4 -22
9 -25 5 -3 7 -16 3 -29 -5 -20 -4 -21 11 -8 15 12 17 11 17 -3 0 -19 16 -21
26 -4 4 6 0 16 -8 22 -13 10 -14 15 -3 30 9 12 12 35 8 69 -3 29 -6 77 -8 107
-3 74 -3 73 -18 67 -8 -3 -20 -1 -28 4 -10 6 -4 9 19 9 31 0 45 21 22 35 -5 3
-10 -1 -10 -9 0 -9 -7 -16 -15 -16 -8 0 -15 5 -15 10 0 6 6 10 13 10 8 0 7 4
-3 10 -26 17 -28 12 -23 -51z m43 -49 c0 -5 -5 -10 -11 -10 -5 0 -7 5 -4 10 3
6 8 10 11 10 2 0 4 -4 4 -10z m0 -30 c0 -5 -7 -10 -15 -10 -8 0 -15 5 -15 10
0 6 7 10 15 10 8 0 15 -4 15 -10z"/>
<path d="M2560 1695 c-7 -9 -10 -18 -6 -22 3 -3 6 -1 6 5 0 7 11 12 25 12 14
0 25 5 25 10 0 16 -36 12 -50 -5z"/>
<path d="M2820 1681 c0 -6 4 -13 10 -16 6 -3 7 1 4 9 -7 18 -14 21 -14 7z"/>
<path d="M3324 1674 c3 -9 6 -24 6 -33 0 -10 6 -18 14 -18 9 0 14 11 13 34 -1
25 -5 33 -20 33 -13 0 -17 -5 -13 -16z"/>
<path d="M2870 1673 c-34 -13 -34 -49 1 -38 13 4 19 2 19 -9 0 -9 9 -16 20
-16 11 0 20 5 20 11 0 8 4 8 14 0 11 -9 15 -8 20 5 4 10 1 22 -5 28 -9 8 -10
7 -4 -3 6 -11 3 -13 -16 -8 -13 4 -37 7 -54 7 -22 0 -26 3 -15 9 8 6 18 7 24
4 5 -3 6 -1 2 5 -4 7 -8 12 -9 11 -1 0 -9 -3 -17 -6z m50 -43 c0 -5 -2 -10 -4
-10 -3 0 -8 5 -11 10 -3 6 -1 10 4 10 6 0 11 -4 11 -10z"/>
<path d="M1900 1658 c0 -5 12 -8 28 -9 27 0 27 -1 5 -11 -20 -10 -32 -28 -18
-28 8 0 75 44 75 50 0 3 -20 5 -45 5 -25 0 -45 -3 -45 -7z"/>
<path d="M3375 1660 c3 -5 10 -10 16 -10 5 0 9 5 9 10 0 6 -7 10 -16 10 -8 0
-12 -4 -9 -10z"/>
<path d="M2709 1648 c-8 -29 -5 -38 14 -38 20 1 21 2 5 14 -10 7 -15 16 -11
19 3 4 3 7 0 7 -4 0 -7 -1 -8 -2z"/>
<path d="M2757 1639 c8 -8 16 -8 30 0 16 9 14 10 -11 11 -22 0 -27 -3 -19 -11z"/>
<path d="M3185 1640 c-3 -5 -1 -10 4 -10 6 0 11 5 11 10 0 6 -2 10 -4 10 -3 0
-8 -4 -11 -10z"/>
<path d="M2559 1616 c8 -10 9 -16 1 -21 -5 -3 -10 -11 -10 -16 0 -11 22 0 60
30 l25 21 -44 0 c-36 0 -42 -2 -32 -14z"/>
<path d="M2860 1609 c0 -5 5 -7 10 -4 6 3 10 8 10 11 0 2 -4 4 -10 4 -5 0 -10
-5 -10 -11z"/>
<path d="M3190 1609 c0 -4 6 -12 14 -18 11 -9 15 -7 18 7 4 12 -1 18 -13 18
-11 0 -19 -3 -19 -7z"/>
<path d="M1923 1595 c-18 -20 -18 -20 27 -20 44 0 51 9 21 25 -25 13 -33 12
-48 -5z"/>
<path d="M2181 1597 c-17 -17 -13 -31 4 -17 12 10 15 9 15 -5 0 -20 24 -15 28
7 4 19 -32 30 -47 15z"/>
<path d="M3343 1587 c0 -15 4 -27 9 -27 5 0 7 -4 3 -9 -3 -5 -1 -12 5 -16 14
-9 12 26 -4 54 l-13 24 0 -26z"/>
<path d="M2935 1584 c-17 -12 -18 -16 -5 -24 8 -5 12 -11 10 -13 -16 -12 -141
-37 -166 -33 -27 5 -27 5 4 -6 38 -13 41 -25 10 -39 -18 -7 -15 -8 16 -3 37 5
39 4 25 -12 -9 -11 -9 -15 -1 -10 8 5 12 0 12 -14 0 -12 4 -19 10 -15 5 3 7
12 3 20 -4 11 2 15 18 14 28 -1 80 -17 62 -18 -16 -1 -17 -21 -2 -21 6 0 17
-7 26 -16 12 -11 13 -18 4 -27 -8 -8 -11 -8 -11 0 0 6 -9 9 -20 6 -11 -3 -20
-9 -20 -14 0 -5 7 -6 15 -3 8 4 15 1 15 -5 0 -6 -9 -11 -19 -11 -11 0 -22 -8
-24 -17 -4 -17 -5 -17 -6 0 -1 19 -26 23 -37 5 -4 -7 -3 -8 4 -4 7 4 12 1 12
-8 0 -20 24 -21 44 -1 19 19 30 19 22 -1 -3 -8 -2 -12 4 -9 6 3 10 15 10 26 0
21 15 26 24 7 4 -7 4 -2 2 11 -4 17 1 25 15 28 13 4 16 8 10 13 -12 7 -4 40 9
40 5 0 5 12 1 28 -4 15 -6 32 -4 39 2 7 -1 21 -7 32 -7 15 -8 21 0 21 7 0 6 5
-2 14 -7 8 -17 11 -22 6 -11 -11 -13 -119 -2 -149 6 -18 5 -22 -5 -19 -8 3
-15 18 -17 36 -2 17 -11 36 -19 44 -14 11 -15 11 -8 -1 6 -11 4 -13 -11 -6
-10 4 -27 7 -36 7 -23 -1 -23 7 -1 23 11 8 25 10 39 5 29 -11 34 -5 34 41 0
20 6 40 13 42 6 3 8 6 2 6 -5 0 -19 -6 -30 -15z"/>
<path d="M2736 1581 c-10 -15 9 -31 34 -30 11 1 11 2 -2 6 -9 2 -18 12 -20 21
-3 14 -5 14 -12 3z"/>
<path d="M3235 1580 c8 -13 35 -13 55 0 11 7 5 10 -23 10 -23 0 -36 -4 -32
-10z"/>
<path d="M1917 1559 c-12 -7 -15 -15 -8 -27 5 -10 7 -30 4 -45 -3 -16 -1 -27
6 -27 6 0 10 5 9 12 -2 6 5 14 14 16 14 2 16 -1 11 -14 -4 -10 -2 -15 3 -11
12 7 12 76 1 95 -10 14 -16 15 -40 1z m33 -19 c0 -5 -7 -10 -16 -10 -8 0 -12
5 -9 10 3 6 10 10 16 10 5 0 9 -4 9 -10z"/>
<path d="M2574 1546 c28 -13 28 -13 5 -19 -13 -3 -20 -9 -16 -13 3 -4 20 -1
37 6 36 15 30 25 -20 34 l-35 6 29 -14z"/>
<path d="M2816 1544 c-9 -24 0 -28 23 -12 12 8 18 18 14 21 -12 12 -31 7 -37
-9z"/>
<path d="M3160 1545 c-14 -8 -35 -14 -47 -15 -12 0 -25 -4 -28 -10 -3 -5 -1
-10 6 -10 6 0 17 -8 24 -17 11 -15 14 -15 35 5 12 11 19 25 16 31 -13 20 33
21 66 1 26 -16 29 -20 13 -20 -12 0 -26 5 -33 12 -7 7 -12 8 -12 4 0 -14 33
-35 56 -36 11 0 29 -7 40 -15 24 -18 34 -19 34 0 0 8 -6 12 -14 9 -8 -3 -19 3
-26 15 -9 17 -8 21 5 21 9 0 23 7 31 15 14 13 11 15 -23 14 -30 0 -34 -2 -18
-9 18 -8 18 -9 -5 -9 -14 0 -36 6 -50 14 -14 8 -29 14 -35 14 -5 0 -21 -6 -35
-14z"/>
<path d="M2170 1541 c0 -5 8 -12 18 -14 16 -4 16 -5 0 -6 -12 -1 -18 -9 -18
-26 0 -24 8 -29 40 -26 13 2 13 0 1 -8 -8 -5 -20 -7 -28 -4 -7 3 -13 0 -13 -6
0 -6 12 -12 28 -12 21 -1 22 -2 7 -6 -23 -6 -36 -23 -28 -36 3 -5 9 -3 14 4 8
12 10 12 18 0 15 -24 26 -4 24 46 -1 26 -2 60 -2 76 -1 23 -5 27 -31 27 -16 0
-30 -4 -30 -9z m50 -51 c0 -5 -4 -10 -9 -10 -6 0 -13 5 -16 10 -3 6 1 10 9 10
9 0 16 -4 16 -10z"/>
<path d="M3598 1523 c6 -2 18 -2 25 0 6 3 1 5 -13 5 -14 0 -19 -2 -12 -5z"/>
<path d="M2700 1510 c0 -5 5 -10 10 -10 6 0 10 5 10 10 0 6 -4 10 -10 10 -5 0
-10 -4 -10 -10z"/>
<path d="M2670 1480 c0 -13 7 -20 19 -20 11 0 21 -4 23 -9 2 -4 12 -5 23 -1
16 6 12 8 -19 14 -27 5 -36 11 -32 22 3 8 1 14 -4 14 -6 0 -10 -9 -10 -20z"/>
<path d="M3037 1493 c-15 -14 -6 -23 22 -23 37 0 49 16 18 24 -28 7 -32 7 -40
-1z"/>
<path d="M2566 1478 c4 -5 17 -7 30 -4 14 4 24 2 24 -4 0 -5 -13 -10 -30 -10
-16 0 -30 -5 -30 -11 0 -7 9 -9 23 -5 12 3 28 6 35 6 8 0 12 8 10 17 -2 12
-14 18 -35 19 -19 1 -30 -2 -27 -8z"/>
<path d="M3210 1462 c0 -12 47 -32 75 -32 13 0 27 -4 30 -10 3 -5 11 -10 17
-10 6 0 6 6 -2 15 -11 13 -10 14 3 9 9 -3 18 -13 20 -22 4 -14 6 -13 12 5 5
16 14 21 33 19 25 -3 27 -6 28 -57 0 -59 16 -99 39 -99 8 0 15 5 15 10 0 15
21 12 34 -5 7 -9 16 -11 24 -6 11 7 10 11 -3 24 -12 13 -21 14 -42 6 -29 -11
-53 -6 -53 11 0 5 11 10 25 10 14 0 28 7 31 15 4 8 15 15 25 15 10 0 19 5 19
10 0 6 -9 10 -20 10 -11 0 -20 5 -20 10 0 6 -6 10 -12 9 -7 -1 -23 -1 -35 0
-20 1 -21 4 -13 27 14 36 14 37 -25 30 -22 -4 -35 -3 -35 4 0 5 -4 10 -10 10
-5 0 -10 -6 -10 -13 0 -8 -12 -14 -30 -14 -16 0 -30 4 -30 8 0 4 -7 10 -16 13
-12 4 -15 2 -10 -9 7 -20 -18 -20 -38 0 -16 17 -26 19 -26 7z"/>
<path d="M1910 1406 c0 -49 9 -61 40 -51 16 5 20 15 20 51 0 42 -1 44 -30 44
-29 0 -30 -2 -30 -44z m45 4 c3 -5 -1 -10 -9 -10 -9 0 -16 5 -16 10 0 6 4 10
9 10 6 0 13 -4 16 -10z"/>
<path d="M3075 1440 l-20 -9 20 0 c11 0 29 4 40 9 l20 9 -20 0 c-11 0 -29 -4
-40 -9z"/>
<path d="M2705 1410 c-3 -6 1 -7 9 -4 18 7 21 14 7 14 -6 0 -13 -4 -16 -10z"/>
<path d="M3226 1407 c3 -10 9 -15 12 -12 3 3 0 11 -7 18 -10 9 -11 8 -5 -6z"/>
<path d="M2580 1401 c0 -5 8 -12 18 -14 9 -2 7 -3 -6 -2 -28 3 -38 -11 -22
-30 17 -20 40 -19 56 3 10 14 10 20 -3 35 -17 18 -43 23 -43 8z m35 -41 c-3
-5 -13 -10 -21 -10 -8 0 -12 5 -9 10 3 6 13 10 21 10 8 0 12 -4 9 -10z"/>
<path d="M2750 1395 c-7 -9 -8 -15 -2 -15 5 0 12 7 16 15 3 8 4 15 2 15 -2 0
-9 -7 -16 -15z"/>
<path d="M3190 1400 c-10 -6 -11 -10 -2 -10 6 0 12 -7 12 -15 0 -8 4 -15 9
-15 4 0 6 11 3 25 -2 14 -5 25 -6 25 0 0 -8 -5 -16 -10z"/>
<path d="M826 1392 c-9 -8 -7 -92 2 -92 4 0 12 4 18 10 11 11 151 -22 145 -36
-2 -5 -32 -20 -68 -33 -53 -20 -66 -22 -73 -10 -15 23 -25 0 -25 -57 0 -30 0
-54 1 -54 1 0 13 11 27 24 14 13 75 43 136 67 116 46 140 70 84 84 -100 24
-199 60 -219 80 -12 13 -25 20 -28 17z"/>
<path d="M2858 1393 c-10 -2 -18 -9 -18 -15 0 -5 6 -8 14 -5 9 4 16 -1 18 -11
3 -11 6 -8 10 11 3 15 2 26 -1 26 -3 -1 -14 -3 -23 -6z"/>
<path d="M3040 1390 l-25 -7 29 -12 c22 -9 26 -15 18 -23 -9 -9 -9 -15 0 -25
13 -16 3 -29 -26 -35 -25 -4 -46 -39 -28 -45 6 -3 12 -16 12 -29 0 -13 5 -24
10 -24 6 0 10 -9 10 -19 0 -24 39 -39 51 -20 14 23 10 30 -11 17 -29 -19 -36
-1 -10 27 23 25 50 33 50 16 0 -9 57 -27 74 -23 4 2 14 -3 22 -9 8 -6 14 -7
14 -2 0 5 14 8 30 5 18 -2 40 2 54 12 14 9 31 13 39 10 8 -3 18 -1 22 5 4 7
-5 11 -22 11 -16 0 -34 5 -41 12 -9 9 -12 7 -12 -11 0 -14 -4 -20 -11 -15 -6
3 -15 1 -19 -6 -5 -8 -13 -9 -21 -4 -8 5 -25 9 -39 10 -63 3 -70 5 -70 19 0 9
-6 12 -15 9 -9 -4 -15 0 -15 10 0 9 -5 16 -11 16 -6 0 -9 7 -5 15 3 8 1 15 -5
15 -6 0 -8 7 -5 15 3 9 -1 18 -11 22 -14 6 -14 8 3 20 10 7 12 13 6 13 -16 0
-15 27 1 33 20 8 -14 6 -43 -3z m40 -120 c0 -17 -51 -33 -64 -20 -8 8 -7 14 4
20 20 13 60 13 60 0z m20 -27 c0 -14 -34 -43 -52 -43 -25 0 -23 16 4 34 23 16
48 21 48 9z"/>
<path d="M3105 1375 c0 -18 3 -21 13 -13 6 6 12 14 12 18 0 4 -6 10 -12 13 -8
3 -13 -4 -13 -18z"/>
<path d="M3354 1373 c-3 -10 -10 -26 -15 -35 -7 -14 -5 -18 11 -18 16 0 20 7
20 35 0 38 -7 46 -16 18z"/>
<path d="M2046 1361 c-4 -5 -3 -17 0 -26 10 -24 48 -15 52 13 3 18 -1 22 -22
22 -14 0 -27 -4 -30 -9z m44 -10 c0 -14 -18 -23 -30 -16 -6 4 -8 11 -5 16 8
12 35 12 35 0z"/>
<path d="M2998 1363 c7 -3 16 -2 19 1 4 3 -2 6 -13 5 -11 0 -14 -3 -6 -6z"/>
<path d="M3401 1354 c0 -11 3 -14 6 -6 3 7 2 16 -1 19 -3 4 -6 -2 -5 -13z"/>
<path d="M2180 1286 l0 -63 30 1 c16 1 30 6 30 13 0 7 -7 10 -15 7 -9 -4 -15
0 -15 10 0 9 7 16 15 16 27 0 16 20 -12 21 l-28 1 28 11 c38 15 37 47 -3 47
l-30 0 0 -64z"/>
<path d="M2722 1335 c-17 -19 -1 -19 24 0 14 11 15 14 4 14 -8 0 -21 -6 -28
-14z"/>
<path d="M2831 1334 c0 -11 3 -14 6 -6 3 7 2 16 -1 19 -3 4 -6 -2 -5 -13z"/>
<path d="M3115 1340 c-3 -5 -1 -10 4 -10 6 0 11 5 11 10 0 6 -2 10 -4 10 -3 0
-8 -4 -11 -10z"/>
<path d="M1910 1319 c0 -16 5 -20 27 -17 17 2 29 10 31 21 3 13 -3 17 -27 17
-25 0 -31 -4 -31 -21z"/>
<path d="M2310 1321 c0 -5 6 -12 13 -14 10 -4 10 -6 0 -6 -7 -1 -13 -12 -13
-25 0 -13 6 -27 13 -29 9 -4 8 -8 -3 -16 -13 -9 -12 -11 4 -11 19 0 19 0 0
-21 -14 -15 -15 -22 -6 -28 9 -5 11 -18 7 -37 -5 -23 -4 -26 5 -14 9 11 13 12
17 3 12 -32 20 -6 22 79 1 65 -2 94 -11 100 -10 6 -10 8 0 8 6 0 12 5 12 10 0
6 -13 10 -30 10 -16 0 -30 -4 -30 -9z m43 -48 c-7 -2 -19 -2 -25 0 -7 3 -2 5
12 5 14 0 19 -2 13 -5z m7 -93 c0 -5 -7 -10 -15 -10 -8 0 -15 5 -15 10 0 6 7
10 15 10 8 0 15 -4 15 -10z"/>
<path d="M2588 1323 c-23 -4 -28 -9 -28 -33 0 -23 5 -31 25 -36 14 -3 22 -11
19 -16 -4 -5 -15 -8 -25 -5 -12 3 -19 0 -19 -8 0 -31 13 -45 42 -45 17 0 27
-4 23 -10 -3 -5 -1 -10 4 -10 6 0 11 9 11 19 0 16 -8 21 -37 23 l-38 4 40 18
c42 20 41 21 -17 40 -10 3 -18 15 -18 26 0 16 6 20 36 20 21 0 33 4 29 10 -3
6 -9 9 -13 9 -4 -1 -19 -4 -34 -6z"/>
<path d="M3010 1320 c-8 -5 -12 -12 -9 -15 4 -3 12 1 19 10 14 17 11 19 -10 5z"/>
<path d="M2040 1299 c0 -5 8 -9 18 -8 32 3 41 -1 36 -16 -4 -8 -18 -15 -33
-15 -25 -1 -25 -1 -7 -15 11 -8 14 -15 8 -15 -18 0 -14 -18 5 -22 16 -3 16 -4
0 -20 -24 -23 -21 -28 13 -28 28 0 30 3 30 35 0 21 -6 38 -17 45 -17 11 -17
11 0 6 14 -4 17 1 17 29 0 33 -2 35 -35 35 -19 0 -35 -5 -35 -11z"/>
<path d="M2837 1303 c-4 -3 -7 -11 -7 -17 0 -6 5 -5 12 2 6 6 9 14 7 17 -3 3
-9 2 -12 -2z"/>
<path d="M3120 1294 c0 -2 9 -13 20 -24 28 -28 107 -34 120 -9 7 12 7 20 0 24
-5 3 -10 0 -10 -8 0 -10 -13 -14 -45 -13 -28 0 -45 5 -45 12 0 6 -9 14 -20 17
-11 3 -20 3 -20 1z"/>
<path d="M3280 1260 c0 -5 12 -10 26 -10 14 0 23 4 19 10 -3 6 -15 10 -26 10
-10 0 -19 -4 -19 -10z"/>
<path d="M3445 1250 c3 -5 2 -10 -3 -10 -6 0 -8 -9 -5 -20 4 -16 11 -18 37
-13 17 3 34 11 38 17 13 19 9 36 -7 30 -8 -4 -15 -13 -15 -21 0 -8 -6 -13 -12
-10 -7 2 -12 12 -12 21 1 9 -5 16 -13 16 -8 0 -11 -4 -8 -10z"/>
<path d="M2838 1232 c-33 -20 -30 -40 11 -84 30 -32 62 -30 54 2 -4 16 2 19
34 22 51 4 54 33 3 33 -29 0 -36 4 -38 23 -4 26 -26 28 -64 4z m38 -17 c7 -18
-3 -65 -15 -65 -4 0 -13 12 -20 26 -9 20 -9 30 0 40 15 18 28 18 35 -1z"/>
<path d="M2190 1205 c-10 -12 -10 -19 -2 -27 9 -9 12 -8 12 5 0 9 7 17 16 17
8 0 12 -4 9 -10 -3 -5 -1 -10 4 -10 14 0 14 13 -1 28 -16 16 -23 15 -38 -3z"/>
<path d="M3368 1161 c18 -17 37 -31 44 -31 6 0 9 1 7 3 -2 2 -22 15 -44 31
l-40 28 33 -31z"/>
<path d="M2207 1162 c-26 -3 -28 -7 -25 -40 3 -33 6 -37 34 -40 31 -3 32 -2
30 37 -1 46 -2 47 -39 43z m20 -28 c-3 -3 -12 -4 -19 -1 -8 3 -5 6 6 6 11 1
17 -2 13 -5z m0 -30 c-3 -3 -12 -4 -19 -1 -8 3 -5 6 6 6 11 1 17 -2 13 -5z"/>
<path d="M3322 1140 c7 -11 17 -20 22 -20 5 0 1 9 -9 20 -10 11 -20 20 -22 20
-2 0 2 -9 9 -20z"/>
<path d="M2057 1144 c-4 -4 -7 -14 -7 -22 0 -12 3 -12 15 -2 12 10 15 10 15
-3 0 -8 -6 -17 -14 -20 -9 -4 -14 -25 -15 -66 -1 -48 3 -62 16 -70 10 -6 12
-11 6 -11 -7 0 -13 -11 -13 -25 0 -24 8 -29 40 -26 11 1 11 -1 -3 -9 -9 -6
-22 -8 -27 -5 -6 3 -10 1 -10 -5 0 -7 14 -10 37 -8 29 2 37 8 39 26 3 19 -1
22 -34 23 -30 2 -32 3 -9 6 28 4 38 23 12 23 -8 0 -15 5 -15 10 0 6 7 10 15
10 8 0 15 4 15 10 0 5 -13 7 -31 3 -25 -5 -31 -3 -27 8 3 8 15 14 27 13 14 0
21 5 21 18 0 12 -7 18 -23 18 -16 0 -23 6 -23 20 0 11 4 20 8 20 15 0 23 -5
21 -12 -2 -5 1 -8 6 -8 5 0 9 19 8 43 -2 34 -6 43 -22 45 -12 2 -24 0 -28 -4z"/>
<path d="M3470 1140 c0 -5 -10 -11 -22 -13 -17 -3 -15 -5 9 -6 34 -1 52 13 28
23 -8 3 -15 1 -15 -4z"/>
<path d="M2570 1129 c0 -7 12 -10 30 -7 30 5 41 -6 18 -15 -8 -3 -6 -6 5 -6
11 -1 17 6 17 19 0 16 -7 20 -35 20 -19 0 -35 -5 -35 -11z"/>
<path d="M3116 1132 c-4 -7 -15 -11 -23 -8 -8 3 -11 1 -8 -4 3 -6 12 -10 20
-10 7 0 15 -5 17 -11 2 -7 13 -9 26 -5 12 4 20 12 16 17 -4 6 -11 6 -19 -1
-11 -9 -14 -6 -17 12 -2 17 -5 19 -12 10z"/>
<path d="M3240 1117 c0 -16 47 -63 55 -55 3 3 -8 19 -25 36 -16 18 -30 26 -30
19z"/>
<path d="M3290 1110 c0 -5 5 -10 11 -10 5 0 7 5 4 10 -3 6 -8 10 -11 10 -2 0
-4 -4 -4 -10z"/>
<path d="M3396 1105 c-3 -9 0 -15 9 -15 16 0 20 16 6 24 -5 3 -11 -1 -15 -9z"/>
<path d="M914 1101 c-11 -5 -34 -25 -52 -45 -28 -32 -32 -44 -32 -92 0 -50 3
-59 34 -90 30 -30 40 -34 88 -34 115 0 186 94 144 193 -21 51 -50 70 -109 74
-28 1 -61 -1 -73 -6z m130 -61 c39 -15 53 -53 32 -85 -47 -72 -204 -71 -222 1
-16 63 105 117 190 84z"/>
<path d="M3320 1096 c0 -2 7 -9 15 -16 12 -10 15 -10 15 4 0 9 -7 16 -15 16
-8 0 -15 -2 -15 -4z"/>
<path d="M2570 1079 c0 -5 7 -9 15 -9 20 0 19 -16 -1 -24 -9 -4 -14 -9 -11
-13 8 -7 67 16 67 27 0 3 -16 11 -35 17 -20 6 -35 7 -35 2z"/>
<path d="M3220 1081 c0 -6 5 -13 10 -16 6 -3 10 1 10 9 0 9 -4 16 -10 16 -5 0
-10 -4 -10 -9z"/>
<path d="M2190 1049 c0 -22 0 -22 15 -3 14 18 14 18 15 1 0 -10 6 -17 13 -14
23 7 12 32 -15 35 -23 3 -28 -1 -28 -19z"/>
<path d="M2326 1062 c-9 -15 -3 -72 8 -72 6 0 5 -5 -2 -12 -7 -7 -12 -17 -12
-22 0 -6 5 -5 12 2 15 15 38 16 38 2 0 -6 -8 -14 -17 -17 -30 -11 -40 -26 -35
-50 6 -31 62 -34 62 -3 0 11 -5 20 -11 20 -5 0 -7 -4 -4 -10 3 -5 -3 -10 -15
-10 -17 0 -19 3 -11 19 6 10 17 21 25 24 20 8 17 77 -3 77 -13 1 -13 2 2 11 9
5 22 7 27 4 13 -8 13 1 0 26 -11 19 -54 27 -64 11z m34 -17 c0 -8 -7 -15 -15
-15 -16 0 -20 12 -8 23 11 12 23 8 23 -8z"/>
<path d="M2190 1010 c0 -5 9 -10 20 -10 26 0 26 -20 -1 -27 -27 -7 -22 -47 7
-51 25 -4 32 10 30 57 -1 30 -5 35 -28 38 -16 2 -28 -1 -28 -7z m50 -60 c0
-12 -28 -25 -36 -17 -9 9 6 27 22 27 8 0 14 -5 14 -10z"/>
<path d="M2600 1010 l-35 -7 38 -2 c20 0 37 4 37 9 0 6 -1 9 -2 9 -2 -1 -19
-5 -38 -9z"/>
<path d="M2590 960 c-25 -3 -40 -8 -35 -11 6 -4 30 -4 55 0 58 8 40 18 -20 11z"/>
<path d="M628 928 c-7 -20 -174 -29 -212 -11 -17 8 -32 9 -35 4 -3 -5 -6 -44
-5 -86 0 -72 2 -80 28 -102 35 -30 60 -24 102 23 29 32 32 33 37 14 4 -15 13
-20 41 -20 52 0 69 30 63 115 -4 66 -11 88 -19 63z m2 -88 c0 -28 -40 -46 -69
-31 -32 17 -26 39 12 44 17 2 38 5 45 5 6 1 12 -7 12 -18z m-120 -13 c0 -32
-18 -47 -57 -47 -22 0 -36 6 -43 19 -20 38 -10 45 73 50 22 1 27 -3 27 -22z"/>
<path d="M2585 920 c-4 -6 8 -10 29 -10 20 0 36 5 36 10 0 6 -13 10 -29 10
-17 0 -33 -4 -36 -10z"/>
<path d="M2194 875 c-4 -9 -2 -21 4 -27 8 -8 8 -15 1 -25 -6 -7 -9 -20 -5 -28
7 -18 52 -20 59 -2 4 10 6 10 6 0 1 -7 5 -13 11 -13 11 0 1 32 -14 42 -6 4
-10 19 -11 35 0 21 -5 29 -23 31 -13 2 -25 -3 -28 -13z m46 -16 c0 -5 -10 -9
-21 -9 -18 0 -19 2 -9 15 12 15 30 12 30 -6z m0 -60 c0 -5 -9 -9 -20 -9 -22 0
-27 16 -7 23 15 5 27 -1 27 -14z"/>
<path d="M2595 870 c-28 -7 -27 -8 13 -9 27 -1 41 3 37 9 -7 11 -7 11 -50 0z"/>
<path d="M2322 819 c-1 -21 3 -39 8 -39 6 0 10 5 10 10 0 6 7 10 15 10 8 0 15
-4 15 -10 0 -5 -6 -10 -14 -10 -7 0 -20 -7 -27 -16 -12 -15 -11 -16 9 -10 12
4 22 3 22 -3 0 -5 3 -16 6 -25 5 -12 0 -16 -20 -16 -14 0 -26 -5 -26 -10 0 -6
11 -8 25 -4 17 4 25 2 25 -7 0 -8 3 -9 8 -3 5 5 7 47 4 93 -3 52 -7 78 -13 70
-7 -11 -12 -11 -27 -2 -17 10 -19 8 -20 -28z"/>
<path d="M2087 829 c-9 -6 -26 -7 -37 -4 -29 9 -24 -4 5 -15 18 -7 32 -6 45 3
35 21 23 37 -13 16z"/>
<path d="M2592 823 c7 -9 7 -13 -1 -13 -6 0 -11 -4 -11 -9 0 -12 59 -11 66 1
3 4 -5 8 -18 9 -23 1 -23 1 2 9 28 9 24 12 -19 14 -22 1 -27 -2 -19 -11z"/>
<path d="M842 765 c1 -46 6 -53 24 -35 13 13 144 25 144 13 0 -4 -34 -26 -75
-47 -62 -33 -96 -62 -83 -71 13 -9 142 -55 155 -55 39 0 -6 -18 -59 -24 -43
-5 -60 -3 -72 9 -19 19 -22 12 -24 -54 l-2 -55 22 21 c18 16 47 24 133 33 61
7 113 14 118 17 20 12 -20 42 -102 77 -50 21 -91 42 -91 45 0 4 43 28 95 54
124 61 120 72 -27 80 -79 4 -115 10 -127 21 -26 24 -29 20 -29 -29z"/>
<path d="M2060 771 c0 -2 8 -10 18 -17 16 -13 16 -13 0 -14 -11 0 -18 -8 -18
-19 0 -25 14 -34 40 -26 22 7 27 40 8 49 -10 5 -10 7 0 12 22 10 13 21 -18 20
-16 -1 -30 -3 -30 -5z m45 -51 c3 -5 -3 -10 -15 -10 -12 0 -18 5 -15 10 3 6
10 10 15 10 5 0 12 -4 15 -10z"/>
<path d="M2170 754 c0 -8 12 -11 35 -8 39 5 45 -5 15 -24 -15 -9 -20 -23 -20
-57 0 -28 4 -45 12 -45 9 0 9 -3 0 -12 -22 -22 -14 -46 16 -51 l27 -4 -27 -2
c-21 -1 -28 -6 -28 -22 0 -16 5 -20 28 -17 24 3 27 7 27 42 0 21 -4 44 -11 50
-8 9 -7 15 3 24 7 7 11 17 8 23 -4 5 -13 3 -21 -6 -19 -19 -24 -19 -24 0 0 9
12 20 26 25 16 6 22 14 18 22 -4 7 -7 27 -6 45 3 31 2 32 -38 30 -24 -1 -40
-6 -40 -13z m75 -164 c3 -6 -1 -13 -10 -16 -19 -8 -30 0 -20 15 8 14 22 14 30
1z"/>
<path d="M635 685 c-7 -10 -37 -17 -105 -21 -84 -6 -98 -4 -114 11 -15 15 -19
16 -27 4 -5 -8 -7 -20 -4 -27 3 -8 5 -30 5 -49 0 -34 1 -35 18 -20 11 10 36
17 60 17 40 0 42 -2 36 -24 -6 -24 10 -65 30 -78 24 -17 77 -8 101 17 26 26
31 69 17 148 -6 29 -9 34 -17 22z m5 -94 c0 -10 -7 -24 -15 -31 -22 -18 -77
-15 -92 6 -26 35 -16 44 47 44 52 0 60 -2 60 -19z"/>
<path d="M2060 651 c0 -17 5 -33 10 -36 6 -3 7 -18 4 -33 -4 -21 -3 -24 5 -12
9 13 12 13 20 1 5 -7 14 -10 21 -6 8 5 7 12 -6 26 -10 11 -12 19 -6 19 7 0 12
15 12 35 0 32 -2 35 -30 35 -27 0 -30 -3 -30 -29z m43 2 c-7 -2 -19 -2 -25 0
-7 3 -2 5 12 5 14 0 19 -2 13 -5z"/>
<path d="M2334 655 c11 -8 15 -15 9 -15 -6 0 -10 -16 -10 -37 2 -28 7 -39 21
-41 27 -6 40 12 27 37 -8 14 -8 21 -1 21 17 0 11 18 -7 23 -17 4 -17 5 0 6 34
2 16 21 -20 21 -36 -1 -37 -2 -19 -15z m41 -65 c3 -6 -1 -13 -10 -16 -19 -8
-30 0 -20 15 8 14 22 14 30 1z"/>
<path d="M2078 542 c-35 -3 -56 -22 -24 -22 18 0 26 -22 20 -52 -5 -20 -4 -21
6 -5 14 21 30 22 30 2 0 -8 5 -15 10 -15 12 0 13 10 1 29 -5 8 -6 24 -1 37 11
28 7 30 -42 26z m32 -22 c0 -5 -7 -10 -15 -10 -8 0 -15 5 -15 10 0 6 7 10 15
10 8 0 15 -4 15 -10z"/>
<path d="M2335 540 c-4 -7 -2 -17 5 -23 10 -9 11 -9 6 0 -3 6 -2 14 4 18 5 3
10 -1 10 -10 0 -9 6 -15 13 -12 6 2 12 10 12 18 0 17 -40 24 -50 9z"/>
<path d="M2207 494 c-4 -4 -7 -16 -7 -27 0 -13 5 -17 16 -13 9 3 22 6 30 6 8
0 14 8 14 18 0 14 -2 15 -10 2 -8 -13 -11 -13 -22 3 -8 10 -17 15 -21 11z"/>
<path d="M399 456 c-3 -3 -3 -23 -1 -45 4 -35 6 -39 21 -29 10 6 30 8 44 4 23
-5 27 -12 27 -45 0 -33 -4 -40 -26 -45 -14 -4 -32 -2 -39 4 -19 16 -23 2 -16
-60 6 -49 8 -53 18 -34 8 14 54 39 125 69 62 26 116 50 120 54 15 14 -10 29
-82 51 -95 29 -170 60 -170 71 0 9 -13 12 -21 5z m201 -102 c0 -7 -59 -34 -75
-34 -13 0 -22 30 -11 41 6 5 86 -1 86 -7z"/>
<path d="M2210 425 c9 -10 9 -15 1 -15 -6 0 -11 -5 -11 -11 0 -7 10 -9 25 -5
14 4 25 2 25 -4 0 -5 -11 -10 -25 -10 -14 0 -25 -4 -25 -10 0 -5 14 -10 30
-10 28 0 30 2 30 40 0 38 -1 40 -31 40 -27 0 -30 -2 -19 -15z"/>
<path d="M2070 420 c0 -5 11 -10 24 -10 14 0 28 5 31 10 4 6 -7 10 -24 10 -17
0 -31 -4 -31 -10z"/>
<path d="M2070 390 c0 -5 9 -10 19 -10 11 0 23 -4 26 -10 4 -6 -5 -10 -19 -10
-14 0 -26 -4 -26 -8 0 -5 14 -9 30 -9 26 0 30 4 30 29 0 24 -4 28 -30 28 -16
0 -30 -4 -30 -10z"/>
<path d="M2219 343 c-11 -2 -16 -14 -15 -33 1 -27 4 -30 35 -30 26 0 32 3 27
16 -3 9 -6 24 -6 35 0 19 -8 21 -41 12z m31 -17 c0 -2 -7 -6 -15 -10 -8 -3
-15 -1 -15 4 0 6 7 10 15 10 8 0 15 -2 15 -4z"/>
<path d="M2093 319 c-25 -9 -30 -24 -11 -35 6 -4 8 -3 4 4 -3 6 -2 13 4 17 5
3 10 1 10 -4 0 -6 7 -11 15 -11 15 0 21 25 8 33 -5 3 -18 1 -30 -4z"/>
<path d="M2098 263 c-38 -6 -36 -20 2 -19 17 1 30 7 30 14 0 6 -1 11 -2 11 -2
-1 -15 -4 -30 -6z"/>
<path d="M2084 203 c3 -20 21 -28 30 -14 4 5 -2 15 -13 20 -16 9 -19 8 -17 -6z"/>
</g>
</svg>
